<svg xmlns="http://www.w3.org/2000/svg" xmlns:xlink="http://www.w3.org/1999/xlink" version="1.1" width="256" height="256" viewBox="0 0 256 256" xml:space="preserve">

<defs>
</defs>
<g style="stroke: none; stroke-width: 0; stroke-dasharray: none; stroke-linecap: butt; stroke-linejoin: miter; stroke-miterlimit: 10; fill: none; fill-rule: nonzero; opacity: 1;" transform="translate(1.4065934065934016 1.4065934065934016) scale(2.81 2.81)" >
	<path d="M 2.849 87.151 c -0.801 -0.801 -0.8 -2.099 0 -2.899 l 29.441 -29.441 c 0.8 -0.8 2.098 -0.801 2.899 0 s 0.8 2.099 0 2.899 L 5.748 87.151 C 4.947 87.952 3.649 87.952 2.849 87.151 z" style="stroke: none; stroke-width: 1; stroke-dasharray: none; stroke-linecap: butt; stroke-linejoin: miter; stroke-miterlimit: 10; fill: rgb(80,211,161); fill-rule: nonzero; opacity: 1;" transform=" matrix(1 0 0 1 0 0) " stroke-linecap="round" />
	<path d="M 0.916 65.892 c -0.801 -0.801 -0.8 -2.099 0 -2.899 l 11.08 -11.08 c 0.8 -0.8 2.098 -0.801 2.899 0 c 0.801 0.801 0.8 2.099 0 2.899 l -11.08 11.08 C 3.015 66.692 1.717 66.692 0.916 65.892 z" style="stroke: none; stroke-width: 1; stroke-dasharray: none; stroke-linecap: butt; stroke-linejoin: miter; stroke-miterlimit: 10; fill: rgb(80,211,161); fill-rule: nonzero; opacity: 1;" transform=" matrix(1 0 0 1 0 0) " stroke-linecap="round" />
	<path d="M 24.108 89.084 c -0.8 -0.8 -0.8 -2.099 0 -2.899 l 11.08 -11.08 c 0.8 -0.8 2.099 -0.8 2.899 0 c 0.8 0.8 0.8 2.099 0 2.899 l -11.08 11.08 C 26.207 89.884 24.909 89.884 24.108 89.084 z" style="stroke: none; stroke-width: 1; stroke-dasharray: none; stroke-linecap: butt; stroke-linejoin: miter; stroke-miterlimit: 10; fill: rgb(80,211,161); fill-rule: nonzero; opacity: 1;" transform=" matrix(1 0 0 1 0 0) " stroke-linecap="round" />
	<path d="M 89.399 0.601 c -0.53 -0.53 -1.306 -0.729 -2.025 -0.518 L 1.475 25.207 c -0.778 0.228 -1.348 0.891 -1.457 1.693 c -0.086 0.642 0.136 1.278 0.582 1.724 c 0.11 0.11 0.235 0.21 0.372 0.294 l 25.292 15.628 c 0.436 0.269 0.956 0.365 1.459 0.27 l 21.538 -4.079 C 65.667 32.684 78.597 18.514 89.399 0.601 z" style="stroke: none; stroke-width: 1; stroke-dasharray: none; stroke-linecap: butt; stroke-linejoin: miter; stroke-miterlimit: 10; fill: rgb(80,211,161); fill-rule: nonzero; opacity: 1;" transform=" matrix(1 0 0 1 0 0) " stroke-linecap="round" />
	<path d="M 89.399 0.601 c 0.53 0.53 0.729 1.306 0.518 2.025 L 64.793 88.525 c -0.228 0.778 -0.891 1.348 -1.693 1.457 c -0.642 0.086 -1.278 -0.136 -1.724 -0.582 c -0.11 -0.11 -0.21 -0.235 -0.294 -0.372 L 45.452 63.736 c -0.269 -0.436 -0.365 -0.956 -0.27 -1.459 l 4.079 -21.538 L 89.399 0.601 z" style="stroke: none; stroke-width: 1; stroke-dasharray: none; stroke-linecap: butt; stroke-linejoin: miter; stroke-miterlimit: 10; fill: rgb(60,187,139); fill-rule: nonzero; opacity: 1;" transform=" matrix(1 0 0 1 0 0) " stroke-linecap="round" />
</g>
</svg>